<svg xmlns="http://www.w3.org/2000/svg" viewBox="0 0 341.95 114.59"><defs><style>.cls-1{fill:#000206;}.cls-2{fill:#e8a544;}.cls-3{fill:#929190;}</style></defs><title>Ресурс 6</title><g id="Слой_2" data-name="Слой 2"><g id="Слой_1-2" data-name="Слой 1"><path class="cls-1" d="M113.72,68.72,105.2,80.53l3.74,2.52L95.86,93.71,91.19,88.1a46.07,46.07,0,0,1-5.92,5.59L82.7,90.08l-.1-.14A41.24,41.24,0,0,0,34.87,22.81l-.1-.14L32.2,19.06a46.11,46.11,0,0,1,8.17-4.15L38.06,3,52.55,4.49,52.86,0,66.47,5.17,67.94.91,79.75,9.43,82.26,5.7,91.46,17l3.4-3,6,13.28,4-2,2.33,14.37,4.42-.86-1.48,14.48,4.5.32-5.18,13.6Z"/><path class="cls-1" d="M81.39,96.43a45.76,45.76,0,0,1-10.65,4.95l-5.09,12.55-7.55.66L50.9,103.1h0c-1.31-.16-2.59-.39-3.86-.67l-10.68,8.33-6.87-3.21L29,94c-1-.8-2-1.64-3-2.52L12.56,93.36,8.21,87.15l6.35-12c-.51-1.2-1-2.44-1.35-3.69L.66,66.39,0,58.85l11.49-7.2h0c.16-1.31.39-2.59.67-3.86L3.83,37.09,7,30.23l13.54-.49a46.16,46.16,0,0,1,7.77-7.91l2.57,3.62.1.13a41.24,41.24,0,0,0,47.71,67.1l.1.14Z"/><path class="cls-2" d="M56.92,20.22A37.45,37.45,0,1,0,94.37,57.67,37.45,37.45,0,0,0,56.92,20.22Zm0,52A14.57,14.57,0,1,1,71.49,57.67,14.57,14.57,0,0,1,56.92,72.24Z"/><path class="cls-2" d="M133.55,62.16,133,64.45h-6.86l5.54-16.09h9.25l6,16.09h-7.5l-.62-2.29Zm4-4.34c-.41-1.74-.87-3.57-1.3-5.08H136c-.32,1.51-.86,3.62-1.23,5.08Z"/><path class="cls-2" d="M155.08,48.36h7.06V60.11h8.23l-.73,4.34H155.08Z"/><path class="cls-2" d="M178.75,48.36h7.06V60.11H194l-.73,4.34H178.75Z"/><path class="cls-3" d="M211,54v4.8h-8.66V54Z"/><path class="cls-3" d="M223,52.7h-4.85V48.36h16.67V52.7H230V64.45h-7Z"/><path class="cls-3" d="M250.5,58.76v5.69h-6.83V48.36h11.08c4.37,0,6.42,2,6.42,4.57a4,4,0,0,1-2.78,4c1.41.6,2.33,1.69,2.33,4.09v1a11.18,11.18,0,0,0,.25,2.52h-6.74a9.88,9.88,0,0,1-.35-3.23v-.57c0-1.55-.39-1.89-2-1.89Zm0-3.68h2c.8,0,1.72-.3,1.72-1.33s-.69-1.35-1.76-1.35h-2Z"/><path class="cls-3" d="M276.39,62.16l-.57,2.29H269l5.53-16.09h9.26l6,16.09h-7.49l-.62-2.29Zm4-4.34c-.42-1.74-.87-3.57-1.31-5.08h-.18c-.32,1.51-.87,3.62-1.23,5.08Z"/><path class="cls-3" d="M297.91,48.36h9.51c6.42,0,9.35,3.56,9.35,7.84,0,4.64-3.29,8.25-9.33,8.25h-9.53Zm7,11.84h1.74c2,0,2.7-1.54,2.7-3.87,0-1.83-.39-3.72-2.72-3.72H305Z"/><path class="cls-3" d="M340.92,58.48h-8.16v1.65H342l-.82,4.32H326V48.36h15.38V52.7h-8.57v1.44h8.16Z"/></g></g></svg>